<mxfile host="app.diagrams.net" agent="Mozilla/5.0 (X11; Linux x86_64; rv:140.0) Gecko/20100101 Firefox/140.0" version="28.1.2">
  <diagram name="Page-1" id="rQy6d27if6iHu_IivxI7">
    <mxGraphModel dx="647" dy="412" grid="1" gridSize="10" guides="1" tooltips="1" connect="1" arrows="1" fold="1" page="1" pageScale="1" pageWidth="850" pageHeight="1100" math="0" shadow="0">
      <root>
        <mxCell id="0" />
        <mxCell id="1" parent="0" />
        <mxCell id="xGvmMnfeks0QjRUXeaIw-23" value="" style="rounded=1;whiteSpace=wrap;html=1;fillColor=none;dashed=1;strokeColor=light-dark(#000000,#3333FF);" vertex="1" parent="1">
          <mxGeometry x="330" y="180" width="180" height="150" as="geometry" />
        </mxCell>
        <mxCell id="xGvmMnfeks0QjRUXeaIw-13" value="" style="rounded=1;whiteSpace=wrap;html=1;fillColor=none;dashed=1;strokeColor=light-dark(#000000,#99004D);" vertex="1" parent="1">
          <mxGeometry x="430" y="300" width="190" height="80" as="geometry" />
        </mxCell>
        <mxCell id="xGvmMnfeks0QjRUXeaIw-14" value="" style="rounded=1;whiteSpace=wrap;html=1;fillColor=none;dashed=1;strokeColor=light-dark(#000000,#99004D);" vertex="1" parent="1">
          <mxGeometry x="220" y="300" width="190" height="80" as="geometry" />
        </mxCell>
        <mxCell id="xGvmMnfeks0QjRUXeaIw-1" value="" style="rounded=1;whiteSpace=wrap;html=1;fillColor=light-dark(#0E8088,#1A1A1A);strokeColor=light-dark(#000000,#333333);strokeWidth=2;" vertex="1" parent="1">
          <mxGeometry x="360" y="250" width="120" height="60" as="geometry" />
        </mxCell>
        <mxCell id="xGvmMnfeks0QjRUXeaIw-2" value="" style="shape=image;imageAspect=0;aspect=fixed;verticalLabelPosition=bottom;verticalAlign=top;image=https://merch.mikrotik.com/cdn/shop/files/512.png?v=1657867177&amp;width=500;" vertex="1" parent="1">
          <mxGeometry x="362" y="267.82" width="24.36" height="24.36" as="geometry" />
        </mxCell>
        <mxCell id="xGvmMnfeks0QjRUXeaIw-3" value="&lt;pre&gt;edge-ccr2004&lt;/pre&gt;" style="text;html=1;align=center;verticalAlign=middle;whiteSpace=wrap;rounded=0;" vertex="1" parent="1">
          <mxGeometry x="386.36" y="275" width="90.64" height="10" as="geometry" />
        </mxCell>
        <mxCell id="xGvmMnfeks0QjRUXeaIw-4" value="" style="rounded=1;whiteSpace=wrap;html=1;fillColor=light-dark(#0E8088,#1A1A1A);strokeColor=light-dark(#000000,#333333);strokeWidth=2;" vertex="1" parent="1">
          <mxGeometry x="360" y="370" width="120" height="60" as="geometry" />
        </mxCell>
        <mxCell id="xGvmMnfeks0QjRUXeaIw-5" value="" style="shape=image;imageAspect=0;aspect=fixed;verticalLabelPosition=bottom;verticalAlign=top;image=https://merch.mikrotik.com/cdn/shop/files/512.png?v=1657867177&amp;width=500;" vertex="1" parent="1">
          <mxGeometry x="366" y="387.82" width="24.36" height="24.36" as="geometry" />
        </mxCell>
        <mxCell id="xGvmMnfeks0QjRUXeaIw-6" value="&lt;pre&gt;core-crs326&lt;/pre&gt;" style="text;html=1;align=center;verticalAlign=middle;whiteSpace=wrap;rounded=0;" vertex="1" parent="1">
          <mxGeometry x="390.36" y="395" width="83.64" height="10" as="geometry" />
        </mxCell>
        <mxCell id="xGvmMnfeks0QjRUXeaIw-7" value="" style="endArrow=none;html=1;rounded=0;exitX=0.25;exitY=0;exitDx=0;exitDy=0;entryX=0.25;entryY=1;entryDx=0;entryDy=0;" edge="1" parent="1" source="xGvmMnfeks0QjRUXeaIw-4" target="xGvmMnfeks0QjRUXeaIw-1">
          <mxGeometry width="50" height="50" relative="1" as="geometry">
            <mxPoint x="440" y="420" as="sourcePoint" />
            <mxPoint x="490" y="370" as="targetPoint" />
          </mxGeometry>
        </mxCell>
        <mxCell id="xGvmMnfeks0QjRUXeaIw-8" value="" style="endArrow=none;html=1;rounded=0;exitX=0.25;exitY=0;exitDx=0;exitDy=0;entryX=0.25;entryY=1;entryDx=0;entryDy=0;" edge="1" parent="1">
          <mxGeometry width="50" height="50" relative="1" as="geometry">
            <mxPoint x="450" y="370" as="sourcePoint" />
            <mxPoint x="450" y="310" as="targetPoint" />
          </mxGeometry>
        </mxCell>
        <mxCell id="xGvmMnfeks0QjRUXeaIw-9" value="&lt;pre&gt;&lt;font style=&quot;font-size: 10px;&quot;&gt;eBGP-Link-0 - 172.16.255.1&lt;/font&gt;&lt;/pre&gt;" style="text;html=1;align=center;verticalAlign=middle;whiteSpace=wrap;rounded=0;" vertex="1" parent="1">
          <mxGeometry x="226.36" y="310" width="160" height="10" as="geometry" />
        </mxCell>
        <mxCell id="xGvmMnfeks0QjRUXeaIw-10" value="&lt;pre&gt;&lt;font style=&quot;font-size: 10px;&quot;&gt;eBGP-Link-0 - 172.16.255.2&lt;/font&gt;&lt;/pre&gt;" style="text;html=1;align=center;verticalAlign=middle;whiteSpace=wrap;rounded=0;" vertex="1" parent="1">
          <mxGeometry x="226.36" y="360" width="160" height="10" as="geometry" />
        </mxCell>
        <mxCell id="xGvmMnfeks0QjRUXeaIw-11" value="&lt;pre&gt;&lt;font style=&quot;font-size: 10px;&quot;&gt;eBGP-Link-1 - 172.16.255.5&lt;/font&gt;&lt;/pre&gt;" style="text;html=1;align=center;verticalAlign=middle;whiteSpace=wrap;rounded=0;" vertex="1" parent="1">
          <mxGeometry x="450" y="310" width="160" height="10" as="geometry" />
        </mxCell>
        <mxCell id="xGvmMnfeks0QjRUXeaIw-12" value="&lt;pre&gt;&lt;font style=&quot;font-size: 10px;&quot;&gt;eBGP-Link-1 - 172.16.255.6&lt;/font&gt;&lt;/pre&gt;" style="text;html=1;align=center;verticalAlign=middle;whiteSpace=wrap;rounded=0;" vertex="1" parent="1">
          <mxGeometry x="450" y="360" width="160" height="10" as="geometry" />
        </mxCell>
        <mxCell id="xGvmMnfeks0QjRUXeaIw-15" value="&lt;pre&gt;&lt;span style=&quot;color: light-dark(rgb(0, 0, 0), rgb(153, 0, 77));&quot;&gt;eBGP-0&lt;/span&gt;&lt;/pre&gt;" style="text;html=1;align=center;verticalAlign=middle;whiteSpace=wrap;rounded=0;" vertex="1" parent="1">
          <mxGeometry x="260" y="325" width="60" height="30" as="geometry" />
        </mxCell>
        <mxCell id="xGvmMnfeks0QjRUXeaIw-16" value="&lt;pre&gt;&lt;span style=&quot;color: light-dark(rgb(0, 0, 0), rgb(153, 0, 77));&quot;&gt;eBGP-1&lt;/span&gt;&lt;/pre&gt;" style="text;html=1;align=center;verticalAlign=middle;whiteSpace=wrap;rounded=0;" vertex="1" parent="1">
          <mxGeometry x="530" y="325" width="60" height="30" as="geometry" />
        </mxCell>
        <mxCell id="xGvmMnfeks0QjRUXeaIw-17" value="&lt;pre&gt;&lt;font style=&quot;font-size: 10px;&quot;&gt;sfp-sfpplus12 - 10.0.0.150&lt;/font&gt;&lt;/pre&gt;" style="text;html=1;align=center;verticalAlign=middle;whiteSpace=wrap;rounded=0;" vertex="1" parent="1">
          <mxGeometry x="250" y="240" width="160" height="10" as="geometry" />
        </mxCell>
        <mxCell id="xGvmMnfeks0QjRUXeaIw-18" value="" style="endArrow=none;html=1;rounded=0;entryX=0.5;entryY=0;entryDx=0;entryDy=0;startArrow=blockThin;startFill=1;" edge="1" parent="1" target="xGvmMnfeks0QjRUXeaIw-1">
          <mxGeometry width="50" height="50" relative="1" as="geometry">
            <mxPoint x="420" y="160" as="sourcePoint" />
            <mxPoint x="450" y="270" as="targetPoint" />
          </mxGeometry>
        </mxCell>
        <mxCell id="xGvmMnfeks0QjRUXeaIw-20" value="&lt;pre&gt;&lt;font style=&quot;font-size: 10px;&quot;&gt;mgmt ether1 - 10.1.1.5&lt;/font&gt;&lt;/pre&gt;" style="text;html=1;align=center;verticalAlign=middle;whiteSpace=wrap;rounded=0;" vertex="1" parent="1">
          <mxGeometry x="480" y="402.18" width="136" height="10" as="geometry" />
        </mxCell>
        <mxCell id="xGvmMnfeks0QjRUXeaIw-21" value="&lt;pre&gt;&lt;font style=&quot;font-size: 10px;&quot;&gt;mgmt ether1 - 10.1.1.1&lt;/font&gt;&lt;/pre&gt;" style="text;html=1;align=center;verticalAlign=middle;whiteSpace=wrap;rounded=0;" vertex="1" parent="1">
          <mxGeometry x="480" y="265" width="136" height="10" as="geometry" />
        </mxCell>
        <mxCell id="xGvmMnfeks0QjRUXeaIw-22" value="&lt;pre&gt;AS65000&lt;/pre&gt;" style="text;html=1;align=center;verticalAlign=middle;whiteSpace=wrap;rounded=0;fontColor=light-dark(#000000,#3333FF);" vertex="1" parent="1">
          <mxGeometry x="395" y="310" width="50" height="20" as="geometry" />
        </mxCell>
        <mxCell id="xGvmMnfeks0QjRUXeaIw-24" value="" style="rounded=1;whiteSpace=wrap;html=1;fillColor=none;dashed=1;strokeColor=light-dark(#000000,#3333FF);" vertex="1" parent="1">
          <mxGeometry x="330" y="351.09" width="180" height="97.82" as="geometry" />
        </mxCell>
        <mxCell id="xGvmMnfeks0QjRUXeaIw-25" value="&lt;pre&gt;AS65001&lt;/pre&gt;" style="text;html=1;align=center;verticalAlign=middle;whiteSpace=wrap;rounded=0;fontColor=light-dark(#000000,#3333FF);" vertex="1" parent="1">
          <mxGeometry x="395" y="351.09000000000003" width="50" height="20" as="geometry" />
        </mxCell>
        <mxCell id="xGvmMnfeks0QjRUXeaIw-26" value="&lt;div&gt;advertises BGP_ADV_NET:&lt;/div&gt;&lt;div align=&quot;left&quot;&gt;10.1.2.0/27&lt;/div&gt;&lt;div align=&quot;left&quot;&gt;10.1.4.0/27&lt;/div&gt;&lt;div align=&quot;left&quot;&gt;10.1.5.0/27&lt;/div&gt;&lt;div align=&quot;left&quot;&gt;172.16.0.2/32&lt;/div&gt;" style="text;html=1;align=center;verticalAlign=middle;whiteSpace=wrap;rounded=0;" vertex="1" parent="1">
          <mxGeometry x="120" y="371.09000000000003" width="90" height="81.09" as="geometry" />
        </mxCell>
        <mxCell id="xGvmMnfeks0QjRUXeaIw-28" value="" style="endArrow=classic;html=1;rounded=0;exitX=1;exitY=0.5;exitDx=0;exitDy=0;strokeColor=light-dark(#000000,#3333FF);" edge="1" parent="1" source="xGvmMnfeks0QjRUXeaIw-26">
          <mxGeometry width="50" height="50" relative="1" as="geometry">
            <mxPoint x="310" y="410" as="sourcePoint" />
            <mxPoint x="320" y="412" as="targetPoint" />
          </mxGeometry>
        </mxCell>
        <mxCell id="xGvmMnfeks0QjRUXeaIw-29" value="&lt;div&gt;advertises BGP_ADV_NET:&lt;/div&gt;&lt;div align=&quot;left&quot;&gt;0.0.0.0/0&lt;/div&gt;&lt;div align=&quot;left&quot;&gt;172.16.0.1/32&lt;/div&gt;" style="text;html=1;align=center;verticalAlign=middle;whiteSpace=wrap;rounded=0;" vertex="1" parent="1">
          <mxGeometry x="120" y="240" width="90" height="60.55" as="geometry" />
        </mxCell>
        <mxCell id="xGvmMnfeks0QjRUXeaIw-30" value="" style="endArrow=classic;html=1;rounded=0;exitX=1;exitY=0.5;exitDx=0;exitDy=0;strokeColor=light-dark(#000000,#3333FF);" edge="1" parent="1" source="xGvmMnfeks0QjRUXeaIw-29">
          <mxGeometry width="50" height="50" relative="1" as="geometry">
            <mxPoint x="310" y="268.35999999999996" as="sourcePoint" />
            <mxPoint x="320" y="270.35999999999996" as="targetPoint" />
          </mxGeometry>
        </mxCell>
        <mxCell id="xGvmMnfeks0QjRUXeaIw-31" value="&lt;font style=&quot;font-size: 7px;&quot;&gt;DHCP Server for VLANs 20,30,40,50&lt;/font&gt;" style="rounded=1;whiteSpace=wrap;html=1;fillColor=light-dark(#0E8088,#1A1A1A);strokeColor=light-dark(#000000,#333333);" vertex="1" parent="1">
          <mxGeometry x="430" y="210" width="70" height="30" as="geometry" />
        </mxCell>
        <mxCell id="xGvmMnfeks0QjRUXeaIw-32" value="&lt;pre&gt;&lt;font style=&quot;font-size: 8px;&quot;&gt;bridge0 - 172.16.0.1&lt;/font&gt;&lt;/pre&gt;" style="text;html=1;align=center;verticalAlign=middle;whiteSpace=wrap;rounded=0;" vertex="1" parent="1">
          <mxGeometry x="425" y="240" width="100" height="10" as="geometry" />
        </mxCell>
      </root>
    </mxGraphModel>
  </diagram>
</mxfile>
